<?xml version="1.0" encoding="utf-8"?>
<!-- Generator: Adobe Illustrator 26.5.2, SVG Export Plug-In . SVG Version: 6.00 Build 0)  -->
<svg version="1.1" id="Layer_1" xmlns="http://www.w3.org/2000/svg" xmlns:xlink="http://www.w3.org/1999/xlink" x="0px" y="0px"
	 viewBox="0 0 1125 141.7" style="enable-background:new 0 0 1125 141.7;" xml:space="preserve">
<style type="text/css">
	.st0{fill:#00FF00;}
</style>
<g id="Layer_2_00000001622499449243413170000014466441217556395164_">
</g>
<g id="Layer_1_00000044172167646435035700000007997585399423178383_">
	<g id="d">
	</g>
	<g>
		<g>
			<path class="st0" d="M73.5,91.2h-4.4c-1.2,0-2-0.4-2.9-1.2c-0.7-0.7-1.2-1.7-1.2-2.9c0-0.3,0-0.7,0.1-1l2-7.7
				c0.6-2.3,1.7-3.9,3.5-4.5c0.9-0.3,1.9-0.6,3.2-0.6h3.6c0.9,0,1.3,0.4,1.3,1.3s-0.4,1.3-1.3,1.3H73c-1.7,0-2.9,0.9-3.4,2.6l-2,7.7
				c-0.1,0.4-0.1,0.7-0.1,0.9c0,1.2,0.7,1.7,2,1.7h3.6c0.9,0,1.3,0.4,1.3,1.3S74.3,91.2,73.5,91.2z"/>
			<path class="st0" d="M189.1,84.9l1.3-5.1c0.6-2.3,1.6-3.9,2.8-5c1.3-1,3.1-1.5,5.5-1.5c2.3,0,3.8,1,4.7,3.1
				c0.3,0.6,0.4,1.3,0.4,1.9c0,0.4,0,1-0.1,1.5l-1.3,5.1c-0.7,3.1-2.2,5-4.4,5.7c-1,0.4-2.5,0.6-3.9,0.6c-1.5,0-2.6-0.4-3.6-1.5
				s-1.5-2.2-1.5-3.5C189,85.8,189,85.3,189.1,84.9z M199.6,84.9l1.3-5.1c0.1-0.6,0.1-1,0.1-1.5c0-1.6-1-2.3-3.1-2.3
				c-2.6,0-4.4,1.3-5,3.8l-1.3,5.1c-0.1,0.6-0.1,1-0.1,1.5c0,1.6,1,2.3,3.1,2.3C197.3,88.7,199,87.5,199.6,84.9z"/>
			<path class="st0" d="M317,74.4c0.1-0.6,0.6-1,1.2-1h7.9c0.9,0,1.3,0.4,1.3,1.3c0,0.1,0,0.3,0,0.3l-0.7,2.6
				c-0.1,0.6-0.6,0.9-1.2,0.9c-0.3,0-0.6-0.1-0.9-0.4s-0.4-0.6-0.4-0.9c0-0.1,0-0.3,0-0.4l0.3-0.9h-5.1l-3.9,14.4
				c-0.1,0.6-0.6,0.9-1.2,0.9c-0.3,0-0.6-0.1-0.9-0.4s-0.4-0.6-0.4-0.9c0-0.1,0-0.3,0-0.4L317,74.4z"/>
			<path class="st0" d="M452,79.7l-1,3.8h-10.5l-0.7,2.6c-0.1,0.3-0.1,0.6-0.1,0.9c0,1,0.7,1.6,2,1.6h6.3c0.9,0,1.3,0.4,1.3,1.3
				s-0.4,1.3-1.3,1.3h-7c-1.2,0-2-0.4-2.9-1.2c-0.7-0.7-1.2-1.7-1.2-2.9c0-0.3,0-0.7,0.1-1l1.7-6.4c0.6-2.3,1.6-3.9,2.8-5
				c1.2-1,3.1-1.5,5.5-1.5c2.3,0,3.8,1,4.7,3.1c0.3,0.6,0.4,1.3,0.4,1.9C452.2,78.8,452.2,79.2,452,79.7z M449.4,79.7
				c0.1-0.6,0.1-1,0.1-1.5c0-1.6-1-2.5-3.1-2.5c-2.6,0-4.2,1.3-5,3.8l-0.3,1.3h7.9L449.4,79.7z"/>
			<path class="st0" d="M564.2,88.5c0.9,0,1.3,0.4,1.3,1.3s-0.4,1.3-1.3,1.3c-0.9,0-1.7-0.3-2.3-0.9s-1-1.3-1-2.2
				c0-0.3,0-0.6,0.1-0.7l5.5-20.7c0.1-0.6,0.6-0.9,1.2-0.9c0.9,0,1.3,0.4,1.3,1.3c0,0.1,0,0.3,0,0.4l-5.4,20.1
				c0,0.3-0.1,0.4-0.1,0.6C563.4,88.4,563.6,88.5,564.2,88.5z"/>
			<path class="st0" d="M695.7,91.2h-7c-1.2,0-2-0.4-2.8-1.2c-0.7-0.7-1.2-1.7-1.2-2.9c0-2,0.6-3.5,1.9-4.7c1.2-1,2.8-1.6,4.8-1.6
				h5.2l0.7-2.6c0.1-0.3,0.1-0.6,0.1-0.9c0-1-0.7-1.6-2-1.6h-5.1c-0.9,0-1.3-0.4-1.3-1.3s0.4-1.3,1.3-1.3h5.7c1.2,0,2,0.4,2.9,1.2
				c0.9,0.7,1.2,1.7,1.2,2.9c0,0.3,0,0.7-0.1,1L696.8,90C696.7,90.9,696.3,91.2,695.7,91.2z M696,83.4h-5.2c-1,0-1.9,0.3-2.5,1
				c-0.6,0.6-1,1.5-1,2.5s0.7,1.6,2,1.6h5.2L696,83.4z"/>
			<path class="st0" d="M819.4,75.9H815l-3.8,14.4c-0.1,0.6-0.6,0.9-1.2,0.9c-0.3,0-0.6-0.1-0.9-0.4c-0.3-0.3-0.4-0.6-0.4-0.9
				c0-0.1,0-0.3,0-0.4l3.6-13.7h-1c-0.9,0-1.3-0.4-1.3-1.3s0.4-1.3,1.3-1.3h1.6l1.7-6.7c0.1-0.6,0.6-0.9,1.2-0.9
				c0.9,0,1.3,0.4,1.3,1.3c0,0.1,0,0.3,0,0.4l-1.6,6h3.6c0.9,0,1.3,0.4,1.3,1.3C820.5,75.4,820.2,75.9,819.4,75.9z"/>
			<path class="st0" d="M947.7,79.7l-1,3.8h-10.5l-0.7,2.6c-0.1,0.3-0.1,0.6-0.1,0.9c0,1,0.7,1.6,2,1.6h6.3c0.9,0,1.3,0.4,1.3,1.3
				s-0.4,1.3-1.3,1.3h-7c-1.2,0-2-0.4-2.9-1.2c-0.7-0.7-1.2-1.7-1.2-2.9c0-0.3,0-0.7,0.1-1l1.7-6.4c0.6-2.3,1.6-3.9,2.8-5
				c1.3-1,3.1-1.5,5.5-1.5c2.3,0,3.8,1,4.7,3.1c0.3,0.6,0.4,1.3,0.4,1.9C948,78.8,947.8,79.2,947.7,79.7z M945.1,79.7
				c0.1-0.6,0.1-1,0.1-1.5c0-1.6-1-2.5-3.1-2.5c-2.6,0-4.2,1.3-5,3.8l-0.3,1.3h7.9L945.1,79.7z"/>
			<path class="st0" d="M1067.7,91.2h-7c-1.2,0-2-0.4-2.9-1.2c-0.7-0.7-1.2-1.7-1.2-2.9c0-0.3,0-0.7,0.1-1l2-7.7
				c0.4-1.9,1.3-3.2,2.3-3.9c1-0.7,2.5-1.2,4.4-1.2h5.2l1.7-6.7c0.1-0.6,0.6-0.9,1.2-0.9c0.9,0,1.3,0.4,1.3,1.3c0,0.1,0,0.3,0,0.4
				l-6.1,22.9C1068.7,90.9,1068.3,91.2,1067.7,91.2z M1064.8,75.9c-1.7,0-2.9,0.9-3.4,2.6l-2,7.7c-0.1,0.3-0.1,0.6-0.1,0.9
				c0,1.2,0.7,1.6,2,1.6h5.2l3.4-12.8C1069.9,75.9,1064.8,75.9,1064.8,75.9z"/>
		</g>
		<g>
			<g>
				<path d="M58.5,76.2h-4.4c-1.2,0-2-0.4-2.9-1.2c-0.7-0.7-1.2-1.7-1.2-2.9c0-0.3,0-0.7,0.1-1l2-7.7c0.6-2.3,1.7-3.9,3.5-4.5
					c0.9-0.3,1.9-0.6,3.2-0.6h3.8c0.9,0,1.3,0.4,1.3,1.3s-0.4,1.3-1.3,1.3h-4.4c-1.7,0-2.9,0.9-3.4,2.6l-2,7.6
					c-0.1,0.4-0.1,0.7-0.1,0.9c0,1.2,0.7,1.7,2,1.7h3.6c0.9,0,1.3,0.4,1.3,1.3C59.8,75.9,59.3,76.2,58.5,76.2z"/>
				<path d="M174.1,69.9l1.3-5.1c0.6-2.3,1.6-3.9,2.8-5c1.3-1,3.1-1.5,5.5-1.5c2.3,0,3.8,1,4.7,3.1c0.3,0.6,0.4,1.3,0.4,1.9
					c0,0.4,0,1-0.1,1.5l-1.3,5.1c-0.7,3.1-2.2,5-4.4,5.7c-1,0.4-2.5,0.6-3.9,0.6c-1.5,0-2.6-0.4-3.6-1.5s-1.5-2.2-1.5-3.5
					C174,70.9,174.1,70.3,174.1,69.9z M184.7,69.9l1.3-5.1c0.1-0.6,0.1-1,0.1-1.5c0-1.6-1-2.3-3.1-2.3c-2.6,0-4.4,1.3-5,3.8
					l-1.3,5.1c-0.1,0.6-0.1,1-0.1,1.5c0,1.6,1,2.3,3.1,2.3C182.4,73.8,184,72.5,184.7,69.9z"/>
				<path d="M302.1,59.4c0.1-0.6,0.6-1,1.2-1h7.9c0.9,0,1.3,0.4,1.3,1.3c0,0.1,0,0.3,0,0.3l-0.7,2.6c-0.1,0.6-0.6,0.9-1.2,0.9
					c-0.3,0-0.6-0.1-0.9-0.4s-0.4-0.6-0.4-0.9c0-0.1,0-0.3,0-0.4l0.3-0.9h-5.2l-3.9,14.4c-0.1,0.6-0.6,0.9-1.2,0.9
					c-0.3,0-0.6-0.1-0.9-0.4s-0.4-0.6-0.4-0.9c0-0.1,0-0.3,0-0.4L302.1,59.4z"/>
				<path d="M437,64.6l-1,3.8h-10.5l-0.7,2.6c-0.1,0.3-0.1,0.6-0.1,0.9c0,1,0.7,1.6,2,1.6h6.3c0.9,0,1.3,0.4,1.3,1.3
					s-0.4,1.3-1.3,1.3h-7c-1.2,0-2-0.4-2.9-1.2c-0.7-0.7-1.2-1.7-1.2-2.9c0-0.3,0-0.7,0.1-1l1.7-6.4c0.6-2.3,1.6-3.9,2.8-5
					c1.2-1,3.1-1.5,5.5-1.5c2.3,0,3.8,1,4.7,3.1c0.3,0.6,0.4,1.3,0.4,1.9C437.2,63.8,437.2,64.2,437,64.6z M434.4,64.6
					c0.1-0.6,0.1-1,0.1-1.5c0-1.6-1-2.5-3.1-2.5c-2.6,0-4.2,1.3-5,3.8l-0.3,1.3h7.9L434.4,64.6z"/>
				<path d="M549.2,73.7c0.9,0,1.3,0.4,1.3,1.3s-0.4,1.3-1.3,1.3c-0.9,0-1.7-0.3-2.3-0.9s-1-1.3-1-2.2c0-0.3,0-0.6,0.1-0.7l5.5-20.7
					c0.1-0.6,0.6-0.9,1.2-0.9c0.9,0,1.3,0.4,1.3,1.3c0,0.1,0,0.3,0,0.4l-5.4,20.1c0,0.3-0.1,0.4-0.1,0.6
					C548.4,73.4,548.7,73.7,549.2,73.7z"/>
				<path d="M680.7,76.2h-7c-1.2,0-2-0.4-2.8-1.2c-0.7-0.7-1.2-1.7-1.2-2.9c0-2,0.6-3.5,1.9-4.7c1.2-1,2.8-1.6,4.8-1.6h5.2l0.7-2.6
					c0.1-0.3,0.1-0.6,0.1-0.9c0-1-0.7-1.6-2-1.6h-5c-0.9,0-1.3-0.4-1.3-1.3s0.4-1.3,1.3-1.3h5.7c1.2,0,2,0.4,2.9,1.2
					c0.9,0.7,1.2,1.7,1.2,2.9c0,0.3,0,0.7-0.1,1L682,75C681.7,75.9,681.3,76.2,680.7,76.2z M681.1,68.6h-5.2c-1,0-1.9,0.3-2.5,1
					c-0.6,0.6-1,1.5-1,2.5s0.7,1.6,2,1.6h5.2L681.1,68.6z"/>
				<path d="M804.4,60.8H800l-3.8,14.4c-0.1,0.6-0.6,0.9-1.2,0.9c-0.3,0-0.6-0.1-0.9-0.4c-0.3-0.3-0.4-0.6-0.4-0.9
					c0-0.1,0-0.3,0-0.4l3.6-13.7h-1c-0.9,0-1.3-0.4-1.3-1.3s0.4-1.3,1.3-1.3h1.6l1.7-6.7c0.1-0.6,0.6-0.9,1.2-0.9
					c0.9,0,1.3,0.4,1.3,1.3c0,0.1,0,0.3,0,0.4l-1.6,6h3.6c0.9,0,1.3,0.4,1.3,1.3C805.7,60.4,805.2,60.8,804.4,60.8z"/>
				<path d="M932.8,64.6l-1,3.8h-10.5l-0.7,2.6c-0.1,0.3-0.1,0.6-0.1,0.9c0,1,0.7,1.6,2,1.6h6.3c0.9,0,1.3,0.4,1.3,1.3
					s-0.4,1.3-1.3,1.3h-7c-1.2,0-2-0.4-2.9-1.2c-0.7-0.7-1.2-1.7-1.2-2.9c0-0.3,0-0.7,0.1-1l1.7-6.4c0.6-2.3,1.6-3.9,2.8-5
					c1.3-1,3.1-1.5,5.5-1.5c2.3,0,3.8,1,4.7,3.1c0.3,0.6,0.4,1.3,0.4,1.9C933,63.8,933,64.2,932.8,64.6z M930.2,64.6
					c0.1-0.6,0.1-1,0.1-1.5c0-1.6-1-2.5-3.1-2.5c-2.6,0-4.2,1.3-5,3.8l-0.3,1.3h7.9L930.2,64.6z"/>
				<path d="M1052.7,76.2h-7c-1.2,0-2-0.4-2.9-1.2c-0.7-0.7-1.2-1.7-1.2-2.9c0-0.3,0-0.7,0.1-1l2-7.7c0.4-1.9,1.3-3.2,2.3-3.9
					c1-0.7,2.5-1.2,4.4-1.2h5.2l1.7-6.7c0.1-0.6,0.6-0.9,1.2-0.9c0.9,0,1.3,0.4,1.3,1.3c0,0.1,0,0.3,0,0.4l-6.1,22.9
					C1053.7,75.9,1053.3,76.2,1052.7,76.2z M1049.9,60.8c-1.7,0-2.9,0.9-3.4,2.6l-2,7.7c-0.1,0.3-0.1,0.6-0.1,0.9
					c0,1.2,0.7,1.6,2,1.6h5.2l3.4-12.8C1055,60.8,1049.9,60.8,1049.9,60.8z"/>
			</g>
		</g>
	</g>
</g>
</svg>
