<?xml version="1.0" encoding="utf-8"?>
<!-- Generator: Adobe Illustrator 26.5.2, SVG Export Plug-In . SVG Version: 6.00 Build 0)  -->
<svg version="1.1" xmlns="http://www.w3.org/2000/svg" xmlns:xlink="http://www.w3.org/1999/xlink" x="0px" y="0px"
	 viewBox="0 0 1125 2000" style="enable-background:new 0 0 1125 2000;" xml:space="preserve">
<style type="text/css">
	.st0{fill:#FFFFFF;stroke:#231F20;stroke-width:9.8565;stroke-miterlimit:15.1182;}
	.st1{fill:#00FF00;stroke:#333333;stroke-width:11.8284;stroke-miterlimit:15.1186;}
	.st2{fill:none;stroke:#FFFFFF;stroke-width:15.7704;stroke-miterlimit:4.48;}
	.st3{fill:none;stroke:#FFFFFF;stroke-width:15.7704;stroke-miterlimit:4.48;stroke-dasharray:39.9678,39.9678;}
	.st4{fill:#FFFFFF;}
	.st5{fill:none;stroke:#00FF00;stroke-width:23.6556;stroke-miterlimit:4.48;}
	.st6{fill:#00FF00;}
</style>
<g id="Layer_1">
	<g id="Layer_2_00000053523471873209729280000008042567905082077332_">
	</g>
	<g id="d">
	</g>
	<g id="c_00000127739083478902209600000003261662352687320241_" transform="translate(-78.321 .3026)">
		<g transform="translate(92.574 -24.591)">
			<circle id="a_00000177461607322864558490000013071854765041562761_" class="st0" cx="476.5" cy="1399.5" r="51.3"/>
		</g>
		<g transform="translate(89.947 -15.894)">
			<circle id="a_00000023247607381324480880000001632976004158163867_" class="st0" cx="554.8" cy="1140.3" r="51.3"/>
		</g>
		<g transform="translate(1.9858 -14.764)">
			<g transform="translate(73.288 -5.916)">
				
					<ellipse id="b_00000033365033539467542050000001663103973732552375_" transform="matrix(1 -3.875764e-03 3.875764e-03 1 -5.0244 2.7034)" class="st1" cx="695" cy="1297.7" rx="53.2" ry="53.2"/>
			</g>
			<g transform="translate(74.29 -8.9654)">
				
					<ellipse id="b_00000088113171630768486950000008987032991532775848_" transform="matrix(1 -3.875742e-03 3.875742e-03 1 -5.3769 2.5882)" class="st1" cx="665.1" cy="1388.6" rx="53.2" ry="53.2"/>
			</g>
			<g transform="translate(78.726 -7.4314)">
				
					<ellipse id="b_00000030474518766562858100000005824429274251394446_" transform="matrix(1 -3.875800e-03 3.875800e-03 1 -5.2008 2.0755)" class="st1" cx="532.9" cy="1342.9" rx="53.2" ry="53.2"/>
			</g>
			<g transform="translate(77.734 -4.7797)">
				
					<ellipse id="b_00000083090524268332543170000008439931114164480430_" transform="matrix(1 -3.875807e-03 3.875807e-03 1 -4.8944 2.1897)" class="st1" cx="562.5" cy="1263.9" rx="53.2" ry="53.2"/>
			</g>
			<g transform="translate(74.76 -4.6916)">
				
					<ellipse id="b_00000157305409695162077450000017577997774439822741_" transform="matrix(1 -3.875759e-03 3.875759e-03 1 -4.8833 2.533)" class="st1" cx="651.1" cy="1261.2" rx="53.2" ry="53.2"/>
			</g>
			<g transform="translate(75.675 -7.1949)">
				
					<ellipse id="b_00000167361965481865328630000017530329580243780502_" transform="matrix(1 -3.875763e-03 3.875763e-03 1 -5.1726 2.4278)" class="st1" cx="623.8" cy="1335.8" rx="53.2" ry="53.2"/>
			</g>
			<g transform="translate(76.818 -9.663)">
				
					<ellipse id="b_00000113331655110756060190000001187628590800907699_" transform="matrix(1 -3.875732e-03 3.875732e-03 1 -5.4581 2.2965)" class="st1" cx="589.8" cy="1409.4" rx="53.2" ry="53.2"/>
			</g>
		</g>
		<g transform="translate(89.302 -22.473)">
			<circle id="a_00000123400204329748211460000004790330010519069354_" class="st0" cx="574" cy="1336.4" r="51.3"/>
		</g>
		<g transform="translate(87.085 -29.058)">
			<circle id="a_00000077321993602879845290000009351711311638173101_" class="st0" cx="640.1" cy="1532.6" r="51.3"/>
		</g>
		<g transform="translate(82.354 -16.425)">
			<circle id="a_00000020401126006127348570000013248605373590711214_" class="st0" cx="781.1" cy="1156.1" r="51.3"/>
		</g>
		<g transform="translate(82.748 -23.702)">
			<circle id="a_00000076567456585196369220000011624981288195730821_" class="st0" cx="769.3" cy="1373" r="51.3"/>
		</g>
	</g>
	<g>
		<g>
			<line class="st2" x1="691.9" y1="864.9" x2="705.8" y2="850.9"/>
			<line class="st3" x1="734.1" y1="822.7" x2="946" y2="610.7"/>
			<line class="st2" x1="960.2" y1="596.6" x2="974.1" y2="582.6"/>
			<g>
				<path class="st4" d="M951.4,712.4c-4.2-0.9-6.9-5.2-6-9.4l26.1-117.8l-117.8,26.1c-4.3,0.9-8.5-1.7-9.4-6
					c-0.9-4.2,1.8-8.5,6-9.4l129.9-28.8c2.6-0.6,5.4,0.2,7.3,2.1s2.7,4.7,2.1,7.3l-28.8,129.9c-0.3,1.5-1.1,2.8-2.1,3.9
					C956.9,712.1,954.1,713,951.4,712.4z"/>
			</g>
		</g>
	</g>
	<g>
		<g>
			<line class="st5" x1="137.5" y1="808.9" x2="383.2" y2="1054.6"/>
			<g>
				<path class="st6" d="M188.6,1020.6c1.4-6.4,7.7-10.4,14.1-9l176.7,39.2l-39.2-176.7c-1.4-6.4,2.6-12.7,9-14.1s12.7,2.7,14.1,9
					l43.2,194.8c0.9,3.9-0.3,8.1-3.2,10.9c-2.9,2.9-7,4.1-10.9,3.2l-194.8-43.2c-2.3-0.5-4.3-1.6-5.8-3.2
					C189.1,1028.7,187.7,1024.7,188.6,1020.6z"/>
			</g>
		</g>
	</g>
</g>
<g id="text">
	<g>
		<path class="st4" d="M329,87c0.6,0.3,0.9,0.8,0.9,1.6c0,0.5-0.2,0.9-0.5,1.2c-0.3,0.3-0.8,0.5-1.2,0.5c-0.3,0-0.5-0.1-0.8-0.2
			c-2.2-1.1-5-1.6-8.4-1.6c-2.5,0-4.6,1.1-6.1,3.4c-0.7,1.1-1.1,2.3-1.1,3.6c0,1.5,0.6,2.5,1.9,3.2l9,5.1c2.1,1.2,3.2,3.1,3.2,5.8
			c0,2.3-0.8,4.5-2.4,6.7c-2.1,2.8-5.2,4.1-9.3,4.1c-2.6,0-5-0.6-7.1-1.7c-1.1-0.6-2.3-1.3-3.5-2.3c-0.4-0.3-0.7-0.8-0.7-1.4
			c0-0.5,0.2-0.9,0.5-1.2c0.3-0.3,0.8-0.5,1.3-0.5c0.4,0,0.7,0.1,1,0.3c3,2.1,6.1,3.2,9.5,3.2c2.5,0,4.5-1.1,6-3.2
			c0.8-1.1,1.2-2.4,1.2-3.9c0-1.4-0.7-2.4-2-3.2l-8.9-5.1c-0.9-0.5-1.7-1.4-2.3-2.5c-0.5-1.1-0.8-2.2-0.8-3.4c0-2.5,1-4.8,2.9-7
			c2.2-2.4,5.1-3.6,8.9-3.6c2.3,0,4.4,0.3,6.4,0.9C327.3,86.3,328.2,86.6,329,87z"/>
		<path class="st4" d="M349.6,99.2h-6l-5.3,20c-0.2,0.9-0.8,1.3-1.7,1.3c-0.5,0-0.9-0.2-1.2-0.5c-0.4-0.3-0.6-0.7-0.6-1.2
			c0-0.2,0-0.3,0.1-0.5l5.1-19h-1.4c-1.2,0-1.8-0.6-1.8-1.8s0.6-1.8,1.8-1.8h2.3l2.5-9.3c0.2-0.9,0.8-1.3,1.7-1.3
			c1.2,0,1.8,0.6,1.8,1.7c0,0.2,0,0.4-0.1,0.5l-2.3,8.4h5c1.2,0,1.8,0.6,1.8,1.8S350.8,99.2,349.6,99.2z"/>
		<path class="st4" d="M373.6,97c0.2-0.9,0.8-1.3,1.7-1.3c1.2,0,1.8,0.6,1.8,1.7c0,0.2,0,0.4-0.1,0.5l-5.6,20.8
			c-0.3,1.2-1.1,1.8-2.3,1.8h-9.2c-1.5,0-2.9-0.6-4-1.7c-1.1-1.1-1.7-2.4-1.7-4c0-0.5,0.1-1,0.2-1.5l4.4-16.4
			c0.2-0.9,0.8-1.3,1.7-1.3c1.2,0,1.8,0.6,1.8,1.7c0,0.2,0,0.4-0.1,0.5l-4.1,15.5c-0.1,0.5-0.2,0.9-0.2,1.3c0,1.5,1,2.3,2.9,2.3h7.4
			L373.6,97z"/>
		<path class="st4" d="M395.3,120.5h-9.6c-1.6,0-2.9-0.6-4-1.7c-1.1-1.1-1.6-2.4-1.6-4c0-0.5,0.1-1,0.2-1.4l2.8-10.6
			c0.7-2.6,1.8-4.4,3.2-5.5c1.4-1.1,3.4-1.6,6-1.6h7.4l2.5-9.3c0.2-0.9,0.8-1.3,1.7-1.3c1.2,0,1.8,0.6,1.8,1.7c0,0.2,0,0.4-0.1,0.5
			l-8.6,31.9C396.8,120,396.2,120.5,395.3,120.5z M391.4,99.2c-2.5,0-4,1.2-4.6,3.5l-2.8,10.6c-0.1,0.5-0.2,0.9-0.2,1.3
			c0,1.5,1,2.3,2.9,2.3h7.4l4.8-17.7H391.4z"/>
		<path class="st4" d="M426.6,104.5l-1.4,5.3h-14.7l-0.9,3.5c-0.1,0.5-0.2,0.9-0.2,1.3c0,1.5,1,2.3,2.9,2.3h8.7
			c1.2,0,1.8,0.6,1.8,1.8s-0.6,1.8-1.8,1.8h-9.6c-1.5,0-2.9-0.6-4-1.7c-1.1-1.1-1.7-2.4-1.7-4c0-0.5,0.1-1,0.2-1.5l2.4-8.9
			c0.8-3.2,2.2-5.5,3.9-6.8c1.8-1.4,4.3-2,7.6-2c3.2,0,5.3,1.4,6.5,4.2c0.4,0.9,0.5,1.8,0.5,2.7
			C426.9,103.3,426.8,103.9,426.6,104.5z M422.9,104.5c0.2-0.8,0.3-1.4,0.3-2c0-2.2-1.5-3.4-4.4-3.4c-3.7,0-6,1.8-6.9,5.3l-0.5,1.8
			h11L422.9,104.5z"/>
		<path class="st4" d="M436,97c0.2-0.9,0.8-1.3,1.7-1.3h9.7c1.6,0,2.9,0.5,4,1.6c1.1,1.1,1.6,2.4,1.6,4c0,0.5-0.1,1-0.2,1.5
			l-4.4,16.4c-0.3,0.9-0.8,1.3-1.7,1.3c-0.5,0-0.9-0.2-1.2-0.5c-0.4-0.3-0.6-0.7-0.6-1.2c0-0.2,0-0.3,0.1-0.5l4.1-15.5
			c0.1-0.5,0.2-0.9,0.2-1.3c0-1.5-1-2.3-2.9-2.3h-7.4l-5.4,20c-0.3,0.9-0.8,1.3-1.7,1.3c-0.5,0-0.9-0.2-1.2-0.5
			c-0.4-0.3-0.6-0.7-0.6-1.2c0-0.2,0-0.3,0.1-0.5L436,97z"/>
		<path class="st4" d="M474.4,99.2h-6l-5.3,20c-0.2,0.9-0.8,1.3-1.7,1.3c-0.5,0-0.9-0.2-1.2-0.5c-0.4-0.3-0.6-0.7-0.6-1.2
			c0-0.2,0-0.3,0.1-0.5l5.1-19h-1.4c-1.2,0-1.8-0.6-1.8-1.8s0.6-1.8,1.8-1.8h2.3l2.5-9.3c0.2-0.9,0.8-1.3,1.7-1.3
			c1.2,0,1.8,0.6,1.8,1.7c0,0.2,0,0.4-0.1,0.5l-2.3,8.4h5c1.2,0,1.8,0.6,1.8,1.8S475.6,99.2,474.4,99.2z"/>
		<path class="st4" d="M496.7,100.6c-1.7-0.9-4.1-1.4-7.1-1.4c-1,0-1.8,0.3-2.5,1c-0.7,0.7-1,1.5-1,2.5c0,0.9,0.3,1.5,1,1.9l7.5,4
			c2.1,1.1,3.1,2.6,3.1,4.4c0,2.8-1.3,4.9-3.9,6.4c-1.2,0.7-2.7,1.1-4.4,1.1c-3.1,0-6.5-0.7-10.1-2c-0.6-0.2-0.9-0.7-0.9-1.5
			c0-0.5,0.2-0.9,0.5-1.2c0.3-0.3,0.8-0.5,1.3-0.5c0.3,0,0.5,0.1,0.8,0.2c2.3,1.1,5.4,1.6,9.3,1.6c0.9,0,1.7-0.4,2.5-1.1
			c0.7-0.7,1.1-1.5,1.1-2.4c0-0.8-0.5-1.5-1.6-2.1l-6.8-3.7c-2.1-1.1-3.1-2.7-3.1-4.8c0-2.7,1.3-4.7,3.9-6.2c1.3-0.7,2.7-1,4.3-1
			c3.1,0,5.9,0.7,8.4,2.2c0.4,0.3,0.6,0.7,0.6,1.4c0,0.5-0.2,0.9-0.5,1.2c-0.3,0.3-0.8,0.5-1.2,0.5
			C497.6,101,497.2,100.9,496.7,100.6z"/>
		<path class="st4" d="M527.1,97c0.2-0.9,0.8-1.3,1.7-1.3c0.5,0,0.9,0.2,1.3,0.5c0.4,0.3,0.5,0.8,0.5,1.2c0,0.2,0,0.4-0.1,0.5
			l-5.7,21.2c-0.2,0.9-0.8,1.3-1.7,1.3c-0.5,0-0.9-0.2-1.2-0.5c-0.4-0.3-0.6-0.7-0.6-1.2c0-0.2,0-0.3,0.1-0.5L527.1,97z M529.5,88.1
			l0.5-1.7c0.2-0.9,0.8-1.3,1.7-1.3c1.2,0,1.8,0.6,1.8,1.7c0,0.2,0,0.4-0.1,0.5l-0.5,1.7c-0.3,0.9-0.8,1.3-1.7,1.3
			c-1.2,0-1.8-0.6-1.8-1.7C529.5,88.4,529.5,88.2,529.5,88.1z"/>
		<path class="st4" d="M538.2,97c0.2-0.9,0.8-1.3,1.7-1.3h9.7c1.6,0,2.9,0.5,4,1.6c1.1,1.1,1.6,2.4,1.6,4c0,0.5-0.1,1-0.2,1.5
			l-4.4,16.4c-0.3,0.9-0.8,1.3-1.7,1.3c-0.5,0-0.9-0.2-1.2-0.5c-0.4-0.3-0.6-0.7-0.6-1.2c0-0.2,0-0.3,0.1-0.5l4.1-15.5
			c0.1-0.5,0.2-0.9,0.2-1.3c0-1.5-1-2.3-2.9-2.3h-7.4l-5.4,20c-0.3,0.9-0.8,1.3-1.7,1.3c-0.5,0-0.9-0.2-1.2-0.5
			c-0.4-0.3-0.6-0.7-0.6-1.2c0-0.2,0-0.3,0.1-0.5L538.2,97z"/>
		<path class="st4" d="M576.9,100.6c-1.7-0.9-4.1-1.4-7.1-1.4c-1,0-1.8,0.3-2.5,1c-0.7,0.7-1,1.5-1,2.5c0,0.9,0.3,1.5,1,1.9l7.5,4
			c2.1,1.1,3.1,2.6,3.1,4.4c0,2.8-1.3,4.9-3.9,6.4c-1.2,0.7-2.7,1.1-4.4,1.1c-3.1,0-6.5-0.7-10.1-2c-0.6-0.2-0.9-0.7-0.9-1.5
			c0-0.5,0.2-0.9,0.5-1.2c0.3-0.3,0.8-0.5,1.3-0.5c0.3,0,0.5,0.1,0.8,0.2c2.3,1.1,5.4,1.6,9.3,1.6c0.9,0,1.7-0.4,2.5-1.1
			c0.7-0.7,1.1-1.5,1.1-2.4c0-0.8-0.5-1.5-1.6-2.1l-6.8-3.7c-2.1-1.1-3.1-2.7-3.1-4.8c0-2.7,1.3-4.7,3.9-6.2c1.3-0.7,2.7-1,4.3-1
			c3.1,0,5.9,0.7,8.4,2.2c0.4,0.3,0.6,0.7,0.6,1.4c0,0.5-0.2,0.9-0.5,1.2c-0.3,0.3-0.8,0.5-1.2,0.5
			C577.7,101,577.3,100.9,576.9,100.6z"/>
		<path class="st4" d="M602.3,99.2h-6l-5.3,20c-0.2,0.9-0.8,1.3-1.7,1.3c-0.5,0-0.9-0.2-1.2-0.5c-0.4-0.3-0.6-0.7-0.6-1.2
			c0-0.2,0-0.3,0.1-0.5l5.1-19h-1.4c-1.2,0-1.8-0.6-1.8-1.8s0.6-1.8,1.8-1.8h2.3l2.5-9.3c0.2-0.9,0.8-1.3,1.7-1.3
			c1.2,0,1.8,0.6,1.8,1.7c0,0.2,0,0.4-0.1,0.5l-2.3,8.4h5c1.2,0,1.8,0.6,1.8,1.8S603.5,99.2,602.3,99.2z"/>
		<path class="st4" d="M622.3,120.5h-9.6c-1.5,0-2.9-0.6-3.9-1.7c-1.1-1.1-1.6-2.4-1.6-4c0-2.7,0.9-4.9,2.7-6.4
			c1.7-1.4,3.9-2.1,6.7-2.1h7.4l0.9-3.5c0.1-0.5,0.2-0.9,0.2-1.3c0-1.5-1-2.3-2.9-2.3h-6.9c-1.2,0-1.8-0.6-1.8-1.8s0.6-1.8,1.8-1.8
			h7.9c1.6,0,2.9,0.5,4,1.6c1.1,1.1,1.6,2.4,1.6,4c0,0.5-0.1,1-0.2,1.5l-4.4,16.4C623.7,120,623.2,120.5,622.3,120.5z M622.8,109.9
			h-7.3c-1.4,0-2.6,0.4-3.5,1.3c-0.9,0.9-1.3,2.1-1.3,3.5c0,1.5,1,2.3,2.9,2.3h7.3L622.8,109.9z"/>
		<path class="st4" d="M637,116.9c1.2,0,1.8,0.6,1.8,1.8s-0.6,1.8-1.8,1.8c-1.3,0-2.4-0.4-3.3-1.2c-0.9-0.8-1.4-1.8-1.4-3
			c0-0.4,0.1-0.7,0.2-1.1l7.7-28.8c0.2-0.9,0.8-1.3,1.7-1.3c1.2,0,1.8,0.6,1.8,1.7c0,0.2,0,0.4-0.1,0.5l-7.5,27.9
			c-0.1,0.3-0.1,0.6-0.1,0.8C635.9,116.6,636.3,116.9,637,116.9z"/>
		<path class="st4" d="M651.7,116.9c1.2,0,1.8,0.6,1.8,1.8s-0.6,1.8-1.8,1.8c-1.3,0-2.4-0.4-3.3-1.2c-0.9-0.8-1.4-1.8-1.4-3
			c0-0.4,0.1-0.7,0.2-1.1l7.7-28.8c0.2-0.9,0.8-1.3,1.7-1.3c1.2,0,1.8,0.6,1.8,1.7c0,0.2,0,0.4-0.1,0.5l-7.5,27.9
			c-0.1,0.3-0.1,0.6-0.1,0.8C650.6,116.6,651,116.9,651.7,116.9z"/>
		<path class="st4" d="M677.4,120.5h-9.6c-1.5,0-2.9-0.6-3.9-1.7c-1.1-1.1-1.6-2.4-1.6-4c0-2.7,0.9-4.9,2.7-6.4
			c1.7-1.4,3.9-2.1,6.7-2.1h7.4l0.9-3.5c0.1-0.5,0.2-0.9,0.2-1.3c0-1.5-1-2.3-2.9-2.3h-6.9c-1.2,0-1.8-0.6-1.8-1.8s0.6-1.8,1.8-1.8
			h7.9c1.6,0,2.9,0.5,4,1.6c1.1,1.1,1.6,2.4,1.6,4c0,0.5-0.1,1-0.2,1.5l-4.4,16.4C678.8,120,678.3,120.5,677.4,120.5z M677.9,109.9
			h-7.3c-1.4,0-2.6,0.4-3.5,1.3c-0.9,0.9-1.3,2.1-1.3,3.5c0,1.5,1,2.3,2.9,2.3h7.3L677.9,109.9z"/>
		<path class="st4" d="M705.1,99.2h-6l-5.3,20c-0.2,0.9-0.8,1.3-1.7,1.3c-0.5,0-0.9-0.2-1.2-0.5c-0.4-0.3-0.5-0.7-0.5-1.2
			c0-0.2,0-0.3,0.1-0.5l5.1-19h-1.4c-1.2,0-1.8-0.6-1.8-1.8s0.6-1.8,1.8-1.8h2.3l2.5-9.3c0.2-0.9,0.8-1.3,1.7-1.3
			c1.2,0,1.8,0.6,1.8,1.7c0,0.2,0,0.4-0.1,0.5l-2.3,8.4h5c1.2,0,1.8,0.6,1.8,1.8S706.3,99.2,705.1,99.2z"/>
		<path class="st4" d="M714.4,97c0.2-0.9,0.8-1.3,1.7-1.3c0.5,0,0.9,0.2,1.3,0.5c0.4,0.3,0.5,0.8,0.5,1.2c0,0.2,0,0.4-0.1,0.5
			l-5.7,21.2c-0.2,0.9-0.8,1.3-1.7,1.3c-0.5,0-0.9-0.2-1.2-0.5c-0.4-0.3-0.6-0.7-0.6-1.2c0-0.2,0-0.3,0.1-0.5L714.4,97z M716.8,88.1
			l0.5-1.7c0.2-0.9,0.8-1.3,1.7-1.3c1.2,0,1.8,0.6,1.8,1.7c0,0.2,0,0.4-0.1,0.5l-0.5,1.7c-0.3,0.9-0.8,1.3-1.7,1.3
			c-1.2,0-1.8-0.6-1.8-1.7C716.7,88.4,716.7,88.2,716.8,88.1z"/>
		<path class="st4" d="M721.5,111.6l1.9-7.1c0.8-3.2,2.2-5.4,3.9-6.8c1.8-1.4,4.3-2.1,7.6-2.1c3.2,0,5.3,1.4,6.5,4.2
			c0.4,0.9,0.5,1.8,0.5,2.7c0,0.7-0.1,1.3-0.2,1.9l-1.9,7.1c-1.1,4.2-3.1,6.8-6,8c-1.5,0.6-3.3,0.9-5.6,0.9c-2,0-3.6-0.7-5-2
			c-1.4-1.3-2-3-2-4.9C721.3,112.9,721.3,112.2,721.5,111.6z M736.2,111.6l1.9-7.1c0.2-0.7,0.3-1.4,0.3-2c0-2.2-1.5-3.3-4.4-3.3
			c-3.7,0-6,1.8-6.9,5.3l-1.9,7.1c-0.2,0.7-0.3,1.4-0.3,2c0,2.2,1.5,3.3,4.4,3.3C732.9,116.9,735.2,115.2,736.2,111.6z"/>
		<path class="st4" d="M751.1,97c0.2-0.9,0.8-1.3,1.7-1.3h9.7c1.6,0,3,0.5,4,1.6c1.1,1.1,1.6,2.4,1.6,4c0,0.5-0.1,1-0.2,1.5
			l-4.4,16.4c-0.3,0.9-0.8,1.3-1.7,1.3c-0.5,0-0.9-0.2-1.2-0.5c-0.4-0.3-0.6-0.7-0.6-1.2c0-0.2,0-0.3,0.1-0.5l4.1-15.5
			c0.1-0.5,0.2-0.9,0.2-1.3c0-1.5-1-2.3-2.9-2.3h-7.4l-5.4,20c-0.3,0.9-0.8,1.3-1.7,1.3c-0.5,0-0.9-0.2-1.2-0.5
			c-0.4-0.3-0.6-0.7-0.6-1.2c0-0.2,0-0.3,0.1-0.5L751.1,97z"/>
		<path class="st4" d="M789.8,100.6c-1.7-0.9-4.1-1.4-7.1-1.4c-1,0-1.8,0.3-2.5,1c-0.7,0.7-1,1.5-1,2.5c0,0.9,0.3,1.5,1,1.9l7.5,4
			c2.1,1.1,3.1,2.6,3.1,4.4c0,2.8-1.3,4.9-3.9,6.4c-1.2,0.7-2.7,1.1-4.3,1.1c-3.1,0-6.5-0.7-10.1-2c-0.6-0.2-0.9-0.7-0.9-1.5
			c0-0.5,0.2-0.9,0.5-1.2c0.3-0.3,0.8-0.5,1.3-0.5c0.3,0,0.5,0.1,0.8,0.2c2.3,1.1,5.4,1.6,9.3,1.6c0.9,0,1.7-0.4,2.5-1.1
			c0.7-0.7,1.1-1.5,1.1-2.4c0-0.8-0.5-1.5-1.6-2.1l-6.8-3.7c-2.1-1.1-3.1-2.7-3.1-4.8c0-2.7,1.3-4.7,3.9-6.2c1.3-0.7,2.7-1,4.3-1
			c3.1,0,5.9,0.7,8.4,2.2c0.4,0.3,0.6,0.7,0.6,1.4c0,0.5-0.2,0.9-0.5,1.2c-0.3,0.3-0.8,0.5-1.2,0.5
			C790.6,101,790.3,100.9,789.8,100.6z"/>
		<path class="st4" d="M320.5,166.6c-1.7-0.9-4.1-1.4-7.1-1.4c-1,0-1.8,0.3-2.5,1c-0.7,0.7-1,1.5-1,2.5c0,0.9,0.3,1.5,1,1.9l7.5,4
			c2.1,1.1,3.1,2.6,3.1,4.4c0,2.8-1.3,4.9-3.9,6.4c-1.2,0.7-2.7,1.1-4.4,1.1c-3.1,0-6.5-0.7-10.1-2c-0.6-0.2-0.9-0.7-0.9-1.5
			c0-0.5,0.2-0.9,0.5-1.2c0.3-0.3,0.8-0.5,1.3-0.5c0.3,0,0.5,0.1,0.8,0.2c2.3,1.1,5.4,1.6,9.3,1.6c0.9,0,1.7-0.4,2.5-1.1
			c0.7-0.7,1.1-1.5,1.1-2.4c0-0.8-0.5-1.5-1.6-2.1l-6.8-3.7c-2.1-1.1-3.1-2.7-3.1-4.8c0-2.7,1.3-4.7,3.9-6.2c1.3-0.7,2.7-1,4.3-1
			c3.1,0,5.9,0.7,8.4,2.2c0.4,0.3,0.6,0.7,0.6,1.4c0,0.5-0.2,0.9-0.5,1.2c-0.3,0.3-0.8,0.5-1.2,0.5C321.4,167,321,166.9,320.5,166.6
			z"/>
		<path class="st4" d="M329.3,177.6l1.9-7.1c0.8-3.2,2.2-5.4,3.9-6.8c1.8-1.4,4.3-2.1,7.6-2.1c3.2,0,5.3,1.4,6.5,4.2
			c0.4,0.9,0.5,1.8,0.5,2.7c0,0.7-0.1,1.3-0.2,1.9l-1.9,7.1c-1.1,4.2-3.1,6.8-6,8c-1.5,0.6-3.3,0.9-5.6,0.9c-2,0-3.6-0.7-5-2
			c-1.4-1.3-2-3-2-4.9C329.1,178.9,329.2,178.2,329.3,177.6z M344,177.6l1.9-7.1c0.2-0.7,0.3-1.4,0.3-2c0-2.2-1.5-3.3-4.4-3.3
			c-3.7,0-6,1.8-6.9,5.3l-1.9,7.1c-0.2,0.7-0.3,1.4-0.3,2c0,2.2,1.5,3.3,4.4,3.3C340.7,182.9,343,181.2,344,177.6z"/>
		<path class="st4" d="M374.5,154.6h-2.3c-2.5,0-4,1.2-4.6,3.5l-0.9,3.5h5c1.2,0,1.8,0.6,1.8,1.8s-0.6,1.8-1.8,1.8h-6l-5.4,20
			c-0.3,0.9-0.8,1.3-1.7,1.3c-0.5,0-0.9-0.2-1.2-0.5c-0.4-0.3-0.6-0.7-0.6-1.2c0-0.2,0-0.3,0.1-0.5l5.1-19h-1.4
			c-1.2,0-1.8-0.6-1.8-1.8s0.6-1.8,1.8-1.8h2.3l0.9-3.5c0.9-3.3,2.5-5.5,4.8-6.4c1.2-0.5,2.7-0.7,4.5-0.7h1.3c1.2,0,1.8,0.6,1.8,1.8
			S375.7,154.6,374.5,154.6z"/>
		<path class="st4" d="M393.7,165.2h-6l-5.3,20c-0.2,0.9-0.8,1.3-1.7,1.3c-0.5,0-0.9-0.2-1.2-0.5c-0.4-0.3-0.6-0.7-0.6-1.2
			c0-0.2,0-0.3,0.1-0.5l5.1-19h-1.4c-1.2,0-1.8-0.6-1.8-1.8s0.6-1.8,1.8-1.8h2.3l2.5-9.3c0.2-0.9,0.8-1.3,1.7-1.3
			c1.2,0,1.8,0.6,1.8,1.7c0,0.2,0,0.4-0.1,0.5l-2.3,8.4h5c1.2,0,1.8,0.6,1.8,1.8S394.9,165.2,393.7,165.2z"/>
		<path class="st4" d="M424.7,182.9c1.2,0,1.8,0.6,1.8,1.8s-0.6,1.8-1.8,1.8c-1.3,0-2.4-0.4-3.3-1.2c-0.9-0.8-1.4-1.8-1.4-3
			c0-0.4,0.1-0.7,0.2-1.1l7.7-28.8c0.2-0.9,0.8-1.3,1.7-1.3c1.2,0,1.8,0.6,1.8,1.7c0,0.2,0,0.4-0.1,0.5l-7.5,27.9
			c-0.1,0.3-0.1,0.6-0.1,0.8C423.6,182.6,424,182.9,424.7,182.9z"/>
		<path class="st4" d="M450.4,186.5h-9.6c-1.5,0-2.9-0.6-3.9-1.7c-1.1-1.1-1.6-2.4-1.6-4c0-2.7,0.9-4.9,2.7-6.4
			c1.7-1.4,3.9-2.1,6.7-2.1h7.4l0.9-3.5c0.1-0.5,0.2-0.9,0.2-1.3c0-1.5-1-2.3-2.9-2.3h-6.9c-1.2,0-1.8-0.6-1.8-1.8s0.6-1.8,1.8-1.8
			h7.9c1.6,0,2.9,0.5,4,1.6c1.1,1.1,1.6,2.4,1.6,4c0,0.5-0.1,1-0.2,1.5l-4.4,16.4C451.8,186,451.3,186.5,450.4,186.5z M450.9,175.9
			h-7.3c-1.4,0-2.6,0.4-3.5,1.3c-0.9,0.9-1.3,2.1-1.3,3.5c0,1.5,1,2.3,2.9,2.3h7.3L450.9,175.9z"/>
		<path class="st4" d="M480.1,163c0.2-0.9,0.8-1.3,1.7-1.3c1.2,0,1.8,0.6,1.8,1.7c0,0.2,0,0.4-0.1,0.5l-5.6,20.8
			c-0.3,1.2-1.1,1.8-2.3,1.8h-9.2c-1.5,0-2.9-0.6-4-1.7c-1.1-1.1-1.7-2.4-1.7-4c0-0.5,0.1-1,0.2-1.5l4.4-16.4
			c0.2-0.9,0.8-1.3,1.7-1.3c1.2,0,1.8,0.6,1.8,1.7c0,0.2,0,0.4-0.1,0.5l-4.1,15.5c-0.1,0.5-0.2,0.9-0.2,1.3c0,1.5,1,2.3,2.9,2.3h7.4
			L480.1,163z"/>
		<path class="st4" d="M491.1,163c0.2-0.9,0.8-1.3,1.7-1.3h9.7c1.6,0,2.9,0.5,4,1.6c1.1,1.1,1.6,2.4,1.6,4c0,0.5-0.1,1-0.2,1.5
			l-4.4,16.4c-0.3,0.9-0.8,1.3-1.7,1.3c-0.5,0-0.9-0.2-1.2-0.5c-0.4-0.3-0.6-0.7-0.6-1.2c0-0.2,0-0.3,0.1-0.5l4.1-15.5
			c0.1-0.5,0.2-0.9,0.2-1.3c0-1.5-1-2.3-2.9-2.3h-7.4l-5.4,20c-0.3,0.9-0.8,1.3-1.7,1.3c-0.5,0-0.9-0.2-1.2-0.5
			c-0.4-0.3-0.6-0.7-0.6-1.2c0-0.2,0-0.3,0.1-0.5L491.1,163z"/>
		<path class="st4" d="M523.8,186.5h-6c-1.5,0-2.9-0.6-4-1.7c-1.1-1.1-1.7-2.4-1.7-4c0-0.5,0.1-1,0.2-1.5l2.8-10.6
			c0.9-3.3,2.5-5.4,4.8-6.4c1.2-0.5,2.7-0.7,4.5-0.7h5c1.2,0,1.8,0.6,1.8,1.8s-0.6,1.8-1.8,1.8h-6c-2.5,0-4,1.2-4.6,3.5l-2.8,10.6
			c-0.1,0.5-0.2,0.9-0.2,1.1c0,1.6,1,2.4,2.9,2.4h5c1.2,0,1.8,0.6,1.8,1.8S525,186.5,523.8,186.5z"/>
		<path class="st4" d="M541.7,152.4c0.2-0.9,0.8-1.3,1.7-1.3c1.2,0,1.8,0.6,1.8,1.7c0,0.2,0,0.4-0.1,0.5l-2.2,8.4h7.3
			c1.5,0,2.9,0.5,4,1.6c1.1,1.1,1.7,2.4,1.7,4c0,0.5-0.1,1-0.2,1.5l-4.4,16.4c-0.3,0.9-0.8,1.3-1.7,1.3c-0.5,0-0.9-0.2-1.2-0.5
			c-0.4-0.3-0.6-0.7-0.6-1.2c0-0.2,0-0.3,0.1-0.5l4.2-15.5c0.1-0.5,0.2-0.9,0.2-1.3c0-1.5-1-2.3-2.9-2.3h-7.4l-5.4,20
			c-0.3,0.9-0.8,1.3-1.7,1.3c-0.5,0-0.9-0.2-1.2-0.5c-0.4-0.3-0.6-0.7-0.6-1.2c0-0.2,0-0.3,0.1-0.5L541.7,152.4z"/>
		<path class="st4" d="M320.3,283.5l-7.5,27.8c-0.2,0.8-0.7,1.2-1.5,1.2c-0.4,0-0.8-0.2-1.1-0.5c-0.3-0.3-0.5-0.7-0.5-1.1
			c0-0.1,0-0.3,0.1-0.5l7.2-27h-6.2c-1.1,0-1.6-0.5-1.6-1.6s0.5-1.6,1.6-1.6h16.7c1.1,0,1.6,0.5,1.6,1.6s-0.5,1.6-1.6,1.6H320.3z"/>
		<path class="st4" d="M335.9,281.5c0.2-0.8,0.7-1.2,1.5-1.2c1.1,0,1.6,0.5,1.6,1.6c0,0.2,0,0.3,0,0.5l-2,7.6h6.7
			c1.4,0,2.6,0.5,3.6,1.5c1,1,1.5,2.2,1.5,3.6c0,0.5-0.1,0.9-0.2,1.3l-4,14.9c-0.2,0.8-0.7,1.2-1.5,1.2c-0.4,0-0.8-0.2-1.1-0.5
			c-0.3-0.3-0.5-0.7-0.5-1.1c0-0.1,0-0.3,0.1-0.5l3.8-14.1c0.1-0.4,0.2-0.8,0.2-1.2c0-1.4-0.9-2.1-2.6-2.1h-6.7l-4.9,18.1
			c-0.2,0.8-0.7,1.2-1.5,1.2c-0.4,0-0.8-0.2-1.1-0.5c-0.3-0.3-0.5-0.7-0.5-1.1c0-0.1,0-0.3,0.1-0.5L335.9,281.5z"/>
		<path class="st4" d="M370,291.1c0.2-0.8,0.7-1.2,1.5-1.2c1.1,0,1.6,0.5,1.6,1.6c0,0.2,0,0.4,0,0.5l-5.1,18.9
			c-0.3,1.1-1,1.6-2.1,1.6h-8.3c-1.4,0-2.6-0.5-3.6-1.5c-1-1-1.5-2.2-1.5-3.6c0-0.5,0.1-0.9,0.2-1.3l4-14.9c0.2-0.8,0.7-1.2,1.6-1.2
			c1.1,0,1.6,0.5,1.6,1.6c0,0.2,0,0.4,0,0.5L356,306c-0.1,0.4-0.2,0.8-0.2,1.2c0,1.4,0.9,2.1,2.6,2.1h6.7L370,291.1z"/>
		<path class="st4" d="M380,291.2c0.2-0.8,0.7-1.2,1.6-1.2h10c1.1,0,1.6,0.5,1.6,1.6c0,0.1,0,0.3,0,0.4l-0.9,3.2
			c-0.2,0.8-0.7,1.2-1.5,1.2c-0.4,0-0.8-0.2-1.1-0.5c-0.4-0.3-0.5-0.7-0.5-1.1c0-0.1,0-0.3,0.1-0.5l0.3-1.2h-6.7l-4.9,18.1
			c-0.2,0.8-0.7,1.2-1.5,1.2c-0.4,0-0.8-0.2-1.1-0.5c-0.3-0.3-0.5-0.7-0.5-1.1c0-0.1,0-0.3,0.1-0.5L380,291.2z"/>
		<path class="st4" d="M411.9,294.4c-1.6-0.8-3.7-1.3-6.5-1.3c-0.9,0-1.7,0.3-2.3,0.9s-1,1.4-1,2.2c0,0.8,0.3,1.4,0.9,1.7l6.9,3.7
			c1.9,1,2.8,2.3,2.8,4c0,2.5-1.2,4.5-3.6,5.9c-1.1,0.7-2.4,1-4,1c-2.8,0-5.9-0.6-9.2-1.8c-0.5-0.2-0.8-0.7-0.8-1.4
			c0-0.4,0.2-0.8,0.5-1.1c0.3-0.3,0.7-0.5,1.1-0.5c0.2,0,0.5,0.1,0.7,0.2c2.1,1,4.9,1.4,8.4,1.4c0.8,0,1.6-0.3,2.3-1
			c0.7-0.7,1-1.4,1-2.2c0-0.7-0.5-1.4-1.5-1.9l-6.2-3.3c-1.9-1-2.8-2.5-2.8-4.3c0-2.4,1.2-4.3,3.6-5.6c1.1-0.6,2.4-0.9,3.9-0.9
			c2.8,0,5.4,0.7,7.7,2c0.4,0.2,0.6,0.6,0.6,1.2c0,0.4-0.2,0.8-0.5,1.1s-0.7,0.5-1.1,0.5C412.6,294.8,412.3,294.7,411.9,294.4z"/>
		<path class="st4" d="M433.1,312.5h-8.8c-1.4,0-2.6-0.5-3.6-1.5c-1-1-1.5-2.2-1.5-3.6c0-0.4,0.1-0.9,0.2-1.3l2.6-9.7
			c0.6-2.3,1.6-4,2.9-5c1.3-1,3.1-1.5,5.5-1.5h6.7l2.2-8.5c0.2-0.8,0.7-1.2,1.6-1.2c1.1,0,1.6,0.5,1.6,1.6c0,0.2,0,0.4,0,0.5
			l-7.8,29C434.5,312.1,433.9,312.5,433.1,312.5z M429.6,293.2c-2.2,0-3.7,1.1-4.2,3.2l-2.6,9.7c-0.1,0.4-0.2,0.8-0.2,1.1
			c0,1.4,0.9,2.1,2.6,2.1h6.7l4.3-16.1H429.6z"/>
		<path class="st4" d="M456.5,312.5h-8.8c-1.4,0-2.6-0.5-3.6-1.5c-1-1-1.5-2.2-1.5-3.6c0-2.5,0.8-4.4,2.4-5.8c1.5-1.3,3.6-2,6.1-2
			h6.7l0.9-3.2c0.1-0.4,0.2-0.8,0.2-1.2c0-1.4-0.9-2.1-2.6-2.1H450c-1.1,0-1.6-0.5-1.6-1.6s0.5-1.6,1.6-1.6h7.2
			c1.4,0,2.6,0.5,3.6,1.5c1,1,1.5,2.2,1.5,3.6c0,0.5-0.1,0.9-0.2,1.3l-4,14.9C457.8,312.1,457.3,312.5,456.5,312.5z M457,302.8h-6.7
			c-1.3,0-2.4,0.4-3.2,1.2c-0.8,0.8-1.2,1.9-1.2,3.2c0,1.4,0.9,2.1,2.6,2.1h6.7L457,302.8z"/>
		<path class="st4" d="M467.1,322.2h-3.2c-1.1,0-1.6-0.5-1.6-1.6s0.5-1.6,1.6-1.6h2.5l5.2-8.5l-1.5-18.9c0-1.1,0.5-1.6,1.6-1.6
			c1,0,1.6,0.5,1.6,1.5l1.1,14.4l9.2-15.1c0.3-0.5,0.8-0.8,1.4-0.8c0.4,0,0.8,0.2,1.1,0.5s0.5,0.7,0.5,1.1c0,0.3-0.1,0.6-0.2,0.9
			l-17.8,29C468.3,321.9,467.8,322.2,467.1,322.2z"/>
		<path class="st4" d="M557.1,286l-4.6,3.5c-0.4,0.3-0.8,0.4-1.2,0.3c-0.5-0.1-0.8-0.3-1.1-0.6c-0.3-0.3-0.4-0.7-0.3-1.2
			c0-0.4,0.3-0.8,0.6-1.1l8.4-6.4c0.3-0.2,0.6-0.3,1-0.3c1.1,0,1.6,0.5,1.6,1.6c0,0.2,0,0.4,0,0.5l-7.8,29c-0.2,0.8-0.7,1.2-1.5,1.2
			c-0.4,0-0.8-0.2-1.1-0.5c-0.3-0.3-0.5-0.7-0.5-1.1c0-0.1,0-0.3,0.1-0.5L557.1,286z"/>
		<path class="st4" d="M577.1,280.3c1.6,0,3.1,0.7,4.4,2.1c1.3,1.4,1.9,2.9,1.9,4.6c0,0.4-0.1,0.9-0.2,1.3l-2.6,9.7
			c-2.1,7.8-7,12.6-14.7,14.5c-0.1,0-0.3,0-0.4,0c-0.4,0-0.8-0.2-1.1-0.5c-0.3-0.3-0.5-0.7-0.5-1.1c0-0.9,0.4-1.4,1.1-1.5
			c1.9-0.2,3.8-0.9,5.5-2c3.2-2,5.3-4.6,6.2-7.8h-4.8c-1.9,0-3.4-0.6-4.6-1.8c-1.2-1.2-1.8-2.7-1.8-4.5c0-0.6,0.1-1.2,0.2-1.8
			l0.9-3.2c0.5-1.9,1.2-3.5,2.1-4.7C570.4,281.4,573.2,280.3,577.1,280.3z M576.2,283.5c-3.3,0-5.4,1.6-6.3,4.8l-0.9,3.2
			c-0.2,0.7-0.3,1.3-0.3,1.8c0,2,1.3,3,4,3h5l2.1-8.1c0.1-0.5,0.2-0.9,0.2-1.2c0-1.1-0.4-2-1.1-2.6
			C578.2,283.8,577.3,283.5,576.2,283.5z"/>
		<path class="st4" d="M661.7,302.8c-1.1,4.1-3.4,6.9-7,8.5c-1.7,0.8-3.6,1.2-5.6,1.2c-1.3,0-2.6-0.4-3.8-1.2c-1.1-0.8-2-1.8-2.7-3
			c-0.7-1.2-1-2.5-1-3.8c0-0.6,0.1-1.1,0.2-1.6l3.5-12.9c1.1-4.1,3.4-6.9,7-8.5c1.7-0.8,3.6-1.1,5.6-1.1c2.7,0,4.9,1.4,6.5,4.2
			c0.7,1.3,1.1,2.5,1.1,3.8c0,0.5-0.1,1.1-0.2,1.6L661.7,302.8z M658.3,302.8l3.5-12.9c0.1-0.5,0.2-1.1,0.2-1.6
			c0-1.9-0.8-3.3-2.5-4.2c-0.8-0.4-1.7-0.6-2.6-0.6c-2.5,0-4.7,1.1-6.6,3.2c-0.9,1-1.5,2.1-1.8,3.2l-3.5,12.9
			c-0.1,0.5-0.2,1.1-0.2,1.6c0,1.4,0.5,2.6,1.5,3.5c1,0.9,2.2,1.4,3.7,1.4c2.5,0,4.7-1.1,6.6-3.3C657.4,305,658,303.9,658.3,302.8z"
			/>
		<path class="st4" d="M677.8,312.5h-5.4c-1.4,0-2.6-0.5-3.6-1.5c-1-1-1.5-2.2-1.5-3.6c0-0.5,0.1-0.9,0.2-1.3l2.6-9.7
			c0.8-3,2.2-4.9,4.3-5.8c1.1-0.4,2.4-0.7,4.1-0.7h4.6c1.1,0,1.6,0.5,1.6,1.6s-0.5,1.6-1.6,1.6h-5.4c-2.2,0-3.7,1.1-4.2,3.2
			l-2.6,9.7c-0.1,0.5-0.2,0.8-0.2,1c0,1.5,0.9,2.2,2.6,2.2h4.6c1.1,0,1.6,0.5,1.6,1.6S678.9,312.5,677.8,312.5z"/>
		<path class="st4" d="M703,293.2h-5.4l-4.9,18.1c-0.2,0.8-0.7,1.2-1.5,1.2c-0.4,0-0.8-0.2-1.1-0.5c-0.3-0.3-0.5-0.7-0.5-1.1
			c0-0.1,0-0.3,0.1-0.5l4.6-17.3H693c-1.1,0-1.6-0.5-1.6-1.6s0.5-1.6,1.6-1.6h2.1l2.3-8.5c0.2-0.8,0.7-1.2,1.5-1.2
			c1.1,0,1.6,0.5,1.6,1.6c0,0.2,0,0.4,0,0.5l-2.1,7.6h4.6c1.1,0,1.6,0.5,1.6,1.6S704.1,293.2,703,293.2z"/>
		<path class="st4" d="M707.9,304.4l1.7-6.4c0.8-2.9,2-4.9,3.6-6.2c1.6-1.2,3.9-1.9,6.9-1.9c2.9,0,4.8,1.3,5.9,3.9
			c0.3,0.8,0.5,1.6,0.5,2.4c0,0.6-0.1,1.2-0.2,1.8l-1.7,6.4c-1,3.8-2.8,6.2-5.5,7.3c-1.4,0.5-3,0.8-5.1,0.8c-1.8,0-3.3-0.6-4.5-1.8
			c-1.2-1.2-1.8-2.7-1.8-4.5C707.7,305.6,707.8,305,707.9,304.4z M721.3,304.4l1.7-6.4c0.2-0.7,0.3-1.3,0.3-1.8c0-2-1.3-3-4-3
			c-3.3,0-5.4,1.6-6.3,4.8l-1.7,6.4c-0.2,0.7-0.3,1.3-0.3,1.8c0,2,1.3,3,4,3C718.3,309.3,720.4,307.7,721.3,304.4z"/>
		<path class="st4" d="M731.2,312.5c-0.4,0-0.8-0.2-1.1-0.5c-0.3-0.3-0.5-0.7-0.5-1.1c0-0.2,0-0.3,0-0.4l7.8-29
			c0.2-0.8,0.7-1.2,1.5-1.2c1.1,0,1.6,0.5,1.6,1.6c0,0.2,0,0.3,0,0.5l-2,7.6h6.7c1.4,0,2.6,0.5,3.6,1.5c1,1,1.5,2.2,1.5,3.6
			c0,0.5-0.1,0.9-0.2,1.3l-2.6,9.7c-0.6,2.3-1.6,4-2.9,5c-1.3,1-3.1,1.5-5.5,1.5H731.2z M744.4,293.2h-6.7l-4.3,16.1h6.7
			c2.2,0,3.6-1.1,4.2-3.2l2.6-9.7c0.1-0.4,0.2-0.8,0.2-1.2C747,293.8,746.1,293.2,744.4,293.2z"/>
		<path class="st4" d="M773.1,298l-1.3,4.8h-13.3l-0.9,3.2c-0.1,0.4-0.2,0.8-0.2,1.2c0,1.4,0.9,2.1,2.6,2.1h7.9
			c1.1,0,1.6,0.5,1.6,1.6s-0.5,1.6-1.6,1.6h-8.8c-1.4,0-2.6-0.5-3.6-1.5c-1-1-1.5-2.2-1.5-3.6c0-0.5,0.1-0.9,0.2-1.3l2.1-8.1
			c0.8-2.9,2-5,3.6-6.2c1.6-1.2,3.9-1.9,6.9-1.9c2.9,0,4.8,1.3,5.9,3.9c0.3,0.8,0.5,1.6,0.5,2.4C773.3,296.8,773.2,297.4,773.1,298z
			 M769.7,298c0.2-0.7,0.3-1.3,0.3-1.8c0-2-1.3-3.1-4-3.1c-3.3,0-5.4,1.6-6.3,4.8l-0.4,1.6h10L769.7,298z"/>
		<path class="st4" d="M781.6,291.2c0.2-0.8,0.7-1.2,1.6-1.2h10c1.1,0,1.6,0.5,1.6,1.6c0,0.1,0,0.3,0,0.4l-0.9,3.2
			c-0.2,0.8-0.7,1.2-1.5,1.2c-0.4,0-0.8-0.2-1.1-0.5c-0.3-0.3-0.5-0.7-0.5-1.1c0-0.1,0-0.3,0.1-0.5l0.3-1.2h-6.7l-4.9,18.1
			c-0.2,0.8-0.7,1.2-1.5,1.2c-0.4,0-0.8-0.2-1.1-0.5c-0.3-0.3-0.5-0.7-0.5-1.1c0-0.1,0-0.3,0.1-0.5L781.6,291.2z"/>
		<path class="st4" d="M314.3,358h-0.8c-1.1,0-1.6-0.5-1.6-1.6s0.5-1.6,1.6-1.6h2.3l5.6-11.3h-10.8c-1.1,0-1.6-0.5-1.6-1.6
			s0.5-1.6,1.6-1.6h13.3c1.1,0,1.6,0.5,1.6,1.6c0,0.3,0,0.5-0.1,0.7l-6.1,12.2h0.7c1.1,0,1.6,0.5,1.6,1.6s-0.5,1.6-1.6,1.6h-2.3
			l-6.8,13.6c-0.2,0.4-0.5,0.7-1,0.8c-1,0.3-1.7,0-2-1c-0.1-0.4-0.1-0.8,0.1-1.2L314.3,358z"/>
		<path class="st4" d="M341.9,364.4h-13.3c-1.1,0-1.6-0.5-1.6-1.6s0.5-1.6,1.6-1.6h13.3c1.1,0,1.6,0.5,1.6,1.6
			S342.9,364.4,341.9,364.4z"/>
		<path class="st4" d="M365.9,355.2c1.1,1.1,1.6,2.5,1.6,4.2c0,0.6-0.1,1.2-0.2,1.8l-0.9,3.2c-0.8,2.9-2,5-3.6,6.2
			c-1.6,1.2-3.9,1.9-6.8,1.9c-1.9,0-3.4-0.6-4.6-1.8c-1.2-1.2-1.8-2.7-1.8-4.5c0-0.6,0.1-1.2,0.2-1.8l0.9-3.2
			c0.9-3.5,2.6-5.8,4.8-6.9c-1.1-1.2-1.6-2.6-1.6-4.3c0-0.7,0.1-1.3,0.2-1.8c0.8-2.9,2-4.9,3.6-6.2c1.6-1.3,3.9-1.9,6.8-1.9
			c1.9,0,3.4,0.6,4.6,1.8c1.2,1.2,1.8,2.7,1.8,4.5c0,0.7-0.1,1.2-0.2,1.8C369.8,351.8,368.2,354,365.9,355.2z M360.3,356.4
			c-3.3,0-5.4,1.6-6.3,4.8l-0.9,3.2c-0.2,0.7-0.3,1.3-0.3,1.8c0,2,1.3,3,4,3c3.3,0,5.4-1.6,6.3-4.8l0.9-3.2c0.2-0.7,0.3-1.3,0.3-1.8
			C364.3,357.4,363,356.4,360.3,356.4z M363.7,343.5c-3.3,0-5.4,1.6-6.2,4.8c-0.2,0.7-0.3,1.3-0.3,1.8c0,2,1.3,3,4,3
			c3.4,0,5.5-1.6,6.3-4.8c0.2-0.7,0.3-1.3,0.3-1.8C367.7,344.5,366.4,343.5,363.7,343.5z"/>
		<path class="st4" d="M388.9,355.1c1.3,0.6,2,2,2,4.2c0,0.6-0.1,1.2-0.2,1.9l-0.9,3.2c-1,3.6-2.8,6-5.7,7.2c-1.4,0.6-3,0.9-4.9,0.9
			h-6.2c-1.1,0-1.6-0.5-1.6-1.6s0.5-1.6,1.6-1.6h7.1c1.4,0,2.7-0.5,3.9-1.4c1.2-0.9,2-2.1,2.4-3.4l0.9-3.2c0.2-0.7,0.3-1.3,0.3-1.8
			c0-2-1.3-3-4-3h-2.9c-1.1,0-1.6-0.5-1.6-1.6s0.5-1.6,1.6-1.6h3.8c1.9,0,3.6-0.8,5-2.4c0.7-0.7,1.1-1.6,1.3-2.4
			c0.1-0.6,0.2-1,0.2-1.4c0-2.3-1.3-3.4-3.9-3.4h-6.2c-1.1,0-1.6-0.5-1.6-1.6s0.5-1.6,1.6-1.6h7.1c2.5,0,4.4,1.1,5.5,3.4
			c0.5,1,0.8,2.1,0.8,3.1c0,0.5-0.1,1-0.2,1.5C393.2,351.8,391.5,354.1,388.9,355.1z"/>
		<path class="st4" d="M412.5,364.3c-2.6,5.5-5.8,8.2-9.8,8.2c-3.5,0-5.2-2.6-5.2-7.8c0-5,1.4-10.4,4.1-16.2
			c2.6-5.5,5.8-8.2,9.8-8.2c3.5,0,5.2,2.6,5.2,7.8C416.6,353.1,415.2,358.5,412.5,364.3z M412,356.4c0.9-3.3,1.3-6.1,1.3-8.3
			c0-3.1-1-4.6-2.9-4.6c-2.1,0-4.3,2.5-6.5,7.4c-0.9,2-1.6,3.8-2,5.5c-0.9,3.3-1.3,6.1-1.3,8.3c0,3.1,1,4.6,2.9,4.6
			c2.1,0,4.2-2.5,6.4-7.4C410.9,359.9,411.6,358,412,356.4z"/>
		<path class="st4" d="M443.5,351.2c0.2-0.8,0.7-1.2,1.6-1.2h8.8c1.4,0,2.6,0.5,3.6,1.5c1,1,1.5,2.2,1.5,3.6c0,0.5-0.1,0.9-0.2,1.3
			l-2.6,9.7c-0.8,3-2.3,4.9-4.4,5.8c-1.1,0.4-2.4,0.7-4.1,0.7h-6.7l-2.3,8.5c-0.2,0.8-0.7,1.2-1.5,1.2c-0.4,0-0.8-0.2-1.1-0.5
			c-0.3-0.3-0.5-0.7-0.5-1.1c0-0.1,0-0.3,0.1-0.5L443.5,351.2z M446.3,353.2l-4.3,16.1h6.7c2.2,0,3.7-1.1,4.2-3.2l2.6-9.7
			c0.1-0.4,0.2-0.8,0.2-1.2c0-1.4-0.9-2.1-2.6-2.1H446.3z"/>
		<path class="st4" d="M466.8,351.2c0.2-0.8,0.7-1.2,1.6-1.2h15.5c1.4,0,2.7,0.5,3.6,1.5c1,1,1.5,2.2,1.5,3.7c0,0.4-0.1,0.9-0.2,1.3
			l-4,14.9c-0.2,0.8-0.7,1.2-1.5,1.2c-0.4,0-0.8-0.2-1.1-0.5c-0.3-0.3-0.5-0.7-0.5-1.1c0-0.1,0-0.3,0.1-0.5l3.8-14.1
			c0.1-0.4,0.2-0.8,0.2-1.2c0-1.4-0.9-2-2.6-2h-3.3l-4.9,18.1c-0.2,0.8-0.7,1.2-1.5,1.2c-0.4,0-0.8-0.2-1.1-0.5
			c-0.3-0.3-0.5-0.7-0.5-1.1c0-0.1,0-0.3,0.1-0.5l4.7-17.3h-6.7l-4.9,18.1c-0.2,0.8-0.7,1.2-1.5,1.2c-0.4,0-0.8-0.2-1.1-0.5
			c-0.3-0.3-0.5-0.7-0.5-1.1c0-0.1,0-0.3,0.1-0.5L466.8,351.2z"/>
		<path class="st4" d="M329,462.3l-7.8,29c-0.2,0.8-0.7,1.2-1.5,1.2c-0.4,0-0.8-0.2-1.1-0.5c-0.3-0.3-0.5-0.7-0.5-1.1
			c0-0.1,0-0.3,0.1-0.5l3.8-14.1h-13.4l-4,14.9c-0.2,0.8-0.7,1.2-1.5,1.2c-0.4,0-0.8-0.2-1.1-0.5c-0.3-0.3-0.5-0.7-0.5-1.1
			c0-0.1,0-0.3,0.1-0.5l7.8-29c0.2-0.8,0.7-1.2,1.5-1.2c1.1,0,1.6,0.5,1.6,1.6c0,0.2,0,0.3,0,0.5l-2.9,10.8h13.4l3.1-11.7
			c0.2-0.8,0.7-1.2,1.5-1.2c1.1,0,1.6,0.5,1.6,1.6C329.1,462,329,462.2,329,462.3z"/>
		<path class="st4" d="M343,492.5h-8.8c-1.4,0-2.6-0.5-3.6-1.5c-1-1-1.5-2.2-1.5-3.6c0-2.5,0.8-4.4,2.4-5.8c1.5-1.3,3.6-2,6.1-2h6.7
			l0.9-3.2c0.1-0.4,0.2-0.8,0.2-1.2c0-1.4-0.9-2.1-2.6-2.1h-6.3c-1.1,0-1.6-0.5-1.6-1.6s0.5-1.6,1.6-1.6h7.2c1.4,0,2.6,0.5,3.6,1.5
			c1,1,1.5,2.2,1.5,3.6c0,0.5-0.1,0.9-0.2,1.3l-4,14.9C344.4,492.1,343.8,492.5,343,492.5z M343.5,482.8h-6.7
			c-1.3,0-2.4,0.4-3.2,1.2c-0.8,0.8-1.2,1.9-1.2,3.2c0,1.4,0.9,2.1,2.6,2.1h6.7L343.5,482.8z"/>
		<path class="st4" d="M356.7,471.2c0.2-0.8,0.7-1.2,1.6-1.2h8.8c1.5,0,2.7,0.5,3.6,1.5c1,1,1.5,2.2,1.5,3.7c0,0.5-0.1,0.9-0.2,1.3
			l-4,14.9c-0.2,0.8-0.7,1.2-1.5,1.2c-0.4,0-0.8-0.2-1.1-0.5c-0.3-0.3-0.5-0.7-0.5-1.1c0-0.1,0-0.3,0.1-0.5l3.8-14.1
			c0.1-0.4,0.2-0.8,0.2-1.2c0-1.4-0.9-2.1-2.6-2.1h-6.7l-4.9,18.1c-0.2,0.8-0.7,1.2-1.5,1.2c-0.4,0-0.8-0.2-1.1-0.5
			c-0.3-0.3-0.5-0.7-0.5-1.1c0-0.1,0-0.3,0.1-0.5L356.7,471.2z"/>
		<path class="st4" d="M376.5,484.4l1.7-6.4c0.8-2.9,2-4.9,3.6-6.2c1.6-1.2,3.9-1.9,6.9-1.9c2.9,0,4.8,1.3,5.9,3.9
			c0.3,0.8,0.5,1.6,0.5,2.4c0,0.6-0.1,1.2-0.2,1.8l-1.7,6.4c-1,3.8-2.8,6.2-5.5,7.3c-1.4,0.5-3,0.8-5.1,0.8c-1.8,0-3.3-0.6-4.5-1.8
			c-1.2-1.2-1.8-2.7-1.8-4.5C376.3,485.6,376.3,485,376.5,484.4z M389.8,484.4l1.7-6.4c0.2-0.7,0.3-1.3,0.3-1.8c0-2-1.3-3-4-3
			c-3.3,0-5.4,1.6-6.3,4.8l-1.7,6.4c-0.2,0.7-0.3,1.3-0.3,1.8c0,2,1.3,3,4,3C386.9,489.3,389,487.7,389.8,484.4z"/>
		<path class="st4" d="M408,491.4c-0.5,0.7-1,1.1-1.6,1.1c-1,0-1.5-0.5-1.6-1.5l-1.5-19.5c0-0.4,0.2-0.8,0.5-1.1
			c0.3-0.3,0.7-0.5,1.1-0.5c1,0,1.6,0.5,1.6,1.5l1.1,14.3l9.2-15c0.3-0.5,0.8-0.8,1.4-0.8c1.1,0,1.6,0.5,1.6,1.6
			c0,0.3-0.1,0.6-0.2,0.9L408,491.4z"/>
		<path class="st4" d="M441.6,478l-1.3,4.8H427l-0.9,3.2c-0.1,0.4-0.2,0.8-0.2,1.2c0,1.4,0.9,2.1,2.6,2.1h7.9c1.1,0,1.6,0.5,1.6,1.6
			s-0.5,1.6-1.6,1.6h-8.8c-1.4,0-2.6-0.5-3.6-1.5c-1-1-1.5-2.2-1.5-3.6c0-0.5,0.1-0.9,0.2-1.3l2.1-8.1c0.8-2.9,2-5,3.6-6.2
			c1.6-1.2,3.9-1.9,6.9-1.9c2.9,0,4.8,1.3,5.9,3.9c0.3,0.8,0.5,1.6,0.5,2.4C441.8,476.8,441.8,477.4,441.6,478z M438.3,478
			c0.2-0.7,0.3-1.3,0.3-1.8c0-2-1.3-3.1-4-3.1c-3.3,0-5.4,1.6-6.3,4.8l-0.4,1.6h10L438.3,478z"/>
		<path class="st4" d="M450.1,471.2c0.2-0.8,0.7-1.2,1.6-1.2h10c1.1,0,1.6,0.5,1.6,1.6c0,0.1,0,0.3,0,0.4l-0.9,3.2
			c-0.2,0.8-0.7,1.2-1.5,1.2c-0.4,0-0.8-0.2-1.1-0.5c-0.4-0.3-0.5-0.7-0.5-1.1c0-0.1,0-0.3,0.1-0.5l0.3-1.2h-6.7l-4.9,18.1
			c-0.2,0.8-0.7,1.2-1.5,1.2c-0.4,0-0.8-0.2-1.1-0.5c-0.3-0.3-0.5-0.7-0.5-1.1c0-0.1,0-0.3,0.1-0.5L450.1,471.2z"/>
		<path class="st4" d="M512.6,462.3l-7.8,29c-0.2,0.8-0.7,1.2-1.5,1.2c-0.4,0-0.8-0.2-1.1-0.5c-0.3-0.3-0.5-0.7-0.5-1.1
			c0-0.1,0-0.3,0.1-0.5l3.8-14.1h-13.4l-4,14.9c-0.2,0.8-0.7,1.2-1.5,1.2c-0.4,0-0.8-0.2-1.1-0.5c-0.3-0.3-0.5-0.7-0.5-1.1
			c0-0.1,0-0.3,0.1-0.5l7.8-29c0.2-0.8,0.7-1.2,1.5-1.2c1.1,0,1.6,0.5,1.6,1.6c0,0.2,0,0.3,0,0.5l-2.9,10.8h13.4l3.1-11.7
			c0.2-0.8,0.7-1.2,1.5-1.2c1.1,0,1.6,0.5,1.6,1.6C512.6,462,512.6,462.2,512.6,462.3z"/>
		<path class="st4" d="M513.3,484.4l1.7-6.4c0.8-2.9,2-4.9,3.6-6.2c1.6-1.2,3.9-1.9,6.9-1.9c2.9,0,4.8,1.3,5.9,3.9
			c0.3,0.8,0.5,1.6,0.5,2.4c0,0.6-0.1,1.2-0.2,1.8l-1.7,6.4c-1,3.8-2.8,6.2-5.5,7.3c-1.4,0.5-3,0.8-5.1,0.8c-1.8,0-3.3-0.6-4.5-1.8
			c-1.2-1.2-1.8-2.7-1.8-4.5C513.1,485.6,513.2,485,513.3,484.4z M526.6,484.4l1.7-6.4c0.2-0.7,0.3-1.3,0.3-1.8c0-2-1.3-3-4-3
			c-3.3,0-5.4,1.6-6.3,4.8l-1.7,6.4c-0.2,0.7-0.3,1.3-0.3,1.8c0,2,1.3,3,4,3C523.7,489.3,525.8,487.7,526.6,484.4z"/>
		<path class="st4" d="M553.6,471.1c0.2-0.8,0.7-1.2,1.5-1.2c1.1,0,1.6,0.5,1.6,1.6c0,0.2,0,0.4,0,0.5l-5.1,18.9
			c-0.3,1.1-1,1.6-2.1,1.6h-8.3c-1.4,0-2.6-0.5-3.6-1.5c-1-1-1.5-2.2-1.5-3.6c0-0.5,0.1-0.9,0.2-1.3l4-14.9c0.2-0.8,0.7-1.2,1.6-1.2
			c1.1,0,1.6,0.5,1.6,1.6c0,0.2,0,0.4,0,0.5l-3.8,14.1c-0.1,0.4-0.2,0.8-0.2,1.2c0,1.4,0.9,2.1,2.6,2.1h6.7L553.6,471.1z"/>
		<path class="st4" d="M575.4,474.4c-1.6-0.8-3.7-1.3-6.5-1.3c-0.9,0-1.7,0.3-2.3,0.9s-1,1.4-1,2.2c0,0.8,0.3,1.4,0.9,1.7l6.9,3.7
			c1.9,1,2.8,2.3,2.8,4c0,2.5-1.2,4.5-3.6,5.9c-1.1,0.7-2.4,1-4,1c-2.8,0-5.9-0.6-9.2-1.8c-0.5-0.2-0.8-0.7-0.8-1.4
			c0-0.4,0.2-0.8,0.5-1.1c0.3-0.3,0.7-0.5,1.1-0.5c0.2,0,0.5,0.1,0.7,0.2c2.1,1,4.9,1.4,8.4,1.4c0.8,0,1.6-0.3,2.3-1
			c0.7-0.7,1-1.4,1-2.2c0-0.7-0.5-1.4-1.5-1.9l-6.2-3.3c-1.9-1-2.8-2.5-2.8-4.3c0-2.4,1.2-4.3,3.6-5.6c1.1-0.6,2.4-0.9,3.9-0.9
			c2.8,0,5.4,0.7,7.7,2c0.4,0.2,0.6,0.6,0.6,1.2c0,0.4-0.2,0.8-0.5,1.1s-0.7,0.5-1.1,0.5C576.1,474.8,575.8,474.7,575.4,474.4z"/>
		<path class="st4" d="M601.8,478l-1.3,4.8h-13.3l-0.9,3.2c-0.1,0.4-0.2,0.8-0.2,1.2c0,1.4,0.9,2.1,2.6,2.1h7.9
			c1.1,0,1.6,0.5,1.6,1.6s-0.5,1.6-1.6,1.6h-8.8c-1.4,0-2.6-0.5-3.6-1.5c-1-1-1.5-2.2-1.5-3.6c0-0.5,0.1-0.9,0.2-1.3l2.1-8.1
			c0.8-2.9,2-5,3.6-6.2c1.6-1.2,3.9-1.9,6.9-1.9c2.9,0,4.8,1.3,5.9,3.9c0.3,0.8,0.5,1.6,0.5,2.4C602,476.8,601.9,477.4,601.8,478z
			 M598.4,478c0.2-0.7,0.3-1.3,0.3-1.8c0-2-1.3-3.1-4-3.1c-3.3,0-5.4,1.6-6.3,4.8l-0.4,1.6h10L598.4,478z"/>
		<path class="st4" d="M606.9,490.1c0.3-0.6,0.8-0.9,1.4-0.9c0.4,0,0.8,0.2,1.2,0.5c0.3,0.3,0.5,0.7,0.5,1.2c0,0.3-0.1,0.5-0.2,0.8
			l-3.4,6.4c-0.3,0.6-0.7,0.8-1.4,0.8c-1.1,0-1.7-0.5-1.7-1.6c0-0.3,0.1-0.5,0.2-0.8L606.9,490.1z"/>
		<path class="st4" d="M326.1,522.1c0.6,0.3,0.9,0.8,0.9,1.4c0,0.4-0.2,0.8-0.5,1.1s-0.7,0.5-1.1,0.5c-0.2,0-0.5-0.1-0.7-0.2
			c-2-1-4.5-1.4-7.6-1.4c-2.3,0-4.1,1-5.5,3.1c-0.7,1-1,2.1-1,3.3c0,1.3,0.6,2.3,1.7,3l8.2,4.6c1.9,1.1,2.9,2.9,2.9,5.2
			c0,2.1-0.7,4.1-2.2,6.1c-1.9,2.5-4.7,3.8-8.5,3.8c-2.4,0-4.6-0.5-6.5-1.5c-1-0.5-2.1-1.2-3.2-2.1c-0.4-0.3-0.6-0.7-0.6-1.2
			c0-0.4,0.2-0.8,0.5-1.1c0.3-0.3,0.7-0.5,1.1-0.5c0.3,0,0.6,0.1,1,0.3c2.7,1.9,5.6,2.9,8.6,2.9c2.2,0,4.1-1,5.5-3
			c0.7-1,1.1-2.2,1.1-3.6c0-1.2-0.6-2.2-1.8-2.9l-8.1-4.6c-0.9-0.5-1.6-1.3-2.1-2.3c-0.5-1-0.7-2-0.7-3.1c0-2.3,0.9-4.4,2.6-6.3
			c2-2.2,4.7-3.3,8.1-3.3c2.1,0,4,0.3,5.9,0.9C324.6,521.4,325.4,521.7,326.1,522.1z"/>
		<path class="st4" d="M329.8,544.4l1.7-6.4c0.8-2.9,2-4.9,3.6-6.2c1.6-1.2,3.9-1.9,6.9-1.9c2.9,0,4.8,1.3,5.9,3.9
			c0.3,0.8,0.5,1.6,0.5,2.4c0,0.6-0.1,1.2-0.2,1.8l-1.7,6.4c-1,3.8-2.8,6.2-5.5,7.3c-1.4,0.5-3,0.8-5.1,0.8c-1.8,0-3.3-0.6-4.5-1.8
			c-1.2-1.2-1.8-2.7-1.8-4.5C329.5,545.6,329.6,545,329.8,544.4z M343.1,544.4l1.7-6.4c0.2-0.7,0.3-1.3,0.3-1.8c0-2-1.3-3-4-3
			c-3.3,0-5.4,1.6-6.3,4.8l-1.7,6.4c-0.2,0.7-0.3,1.3-0.3,1.8c0,2,1.3,3,4,3C340.1,549.3,342.2,547.7,343.1,544.4z"/>
		<path class="st4" d="M370,531.1c0.2-0.8,0.7-1.2,1.5-1.2c1.1,0,1.6,0.5,1.6,1.6c0,0.2,0,0.4,0,0.5l-5.1,18.9
			c-0.3,1.1-1,1.6-2.1,1.6h-8.3c-1.4,0-2.6-0.5-3.6-1.5c-1-1-1.5-2.2-1.5-3.6c0-0.5,0.1-0.9,0.2-1.3l4-14.9c0.2-0.8,0.7-1.2,1.6-1.2
			c1.1,0,1.6,0.5,1.6,1.6c0,0.2,0,0.4,0,0.5L356,546c-0.1,0.4-0.2,0.8-0.2,1.2c0,1.4,0.9,2.1,2.6,2.1h6.7L370,531.1z"/>
		<path class="st4" d="M391.6,533.2h-5.4l-4.9,18.1c-0.2,0.8-0.7,1.2-1.5,1.2c-0.4,0-0.8-0.2-1.1-0.5c-0.3-0.3-0.5-0.7-0.5-1.1
			c0-0.1,0-0.3,0.1-0.5l4.6-17.3h-1.2c-1.1,0-1.6-0.5-1.6-1.6s0.5-1.6,1.6-1.6h2.1l2.3-8.5c0.2-0.8,0.7-1.2,1.5-1.2
			c1.1,0,1.6,0.5,1.6,1.6c0,0.2,0,0.4,0,0.5l-2.1,7.6h4.6c1.1,0,1.6,0.5,1.6,1.6S392.7,533.2,391.6,533.2z"/>
		<path class="st4" d="M402.7,521.5c0.2-0.8,0.7-1.2,1.5-1.2c1.1,0,1.6,0.5,1.6,1.6c0,0.2,0,0.3,0,0.5l-2,7.6h6.7
			c1.4,0,2.6,0.5,3.6,1.5c1,1,1.5,2.2,1.5,3.6c0,0.5-0.1,0.9-0.2,1.3l-4,14.9c-0.2,0.8-0.7,1.2-1.5,1.2c-0.4,0-0.8-0.2-1.1-0.5
			c-0.3-0.3-0.5-0.7-0.5-1.1c0-0.1,0-0.3,0.1-0.5l3.8-14.1c0.1-0.4,0.2-0.8,0.2-1.2c0-1.4-0.9-2.1-2.6-2.1h-6.7l-4.9,18.1
			c-0.2,0.8-0.7,1.2-1.5,1.2c-0.4,0-0.8-0.2-1.1-0.5c-0.3-0.3-0.5-0.7-0.5-1.1c0-0.1,0-0.3,0.1-0.5L402.7,521.5z"/>
		<path class="st4" d="M419.8,552.5c-0.4,0-0.8-0.2-1.1-0.5c-0.3-0.3-0.5-0.7-0.5-1.1c0-0.2,0-0.3,0-0.4l7.8-29
			c0.2-0.8,0.7-1.2,1.5-1.2c1.1,0,1.6,0.5,1.6,1.6c0,0.2,0,0.3,0,0.5l-2,7.6h6.7c1.4,0,2.6,0.5,3.6,1.5c1,1,1.5,2.2,1.5,3.6
			c0,0.5-0.1,0.9-0.2,1.3l-2.6,9.7c-0.6,2.3-1.6,4-2.9,5c-1.3,1-3.1,1.5-5.5,1.5H419.8z M432.9,533.2h-6.7l-4.3,16.1h6.7
			c2.2,0,3.6-1.1,4.2-3.2l2.6-9.7c0.1-0.4,0.2-0.8,0.2-1.2C435.5,533.8,434.7,533.2,432.9,533.2z"/>
		<path class="st4" d="M456.5,552.5h-8.8c-1.4,0-2.6-0.5-3.6-1.5c-1-1-1.5-2.2-1.5-3.6c0-2.5,0.8-4.4,2.4-5.8c1.5-1.3,3.6-2,6.1-2
			h6.7l0.9-3.2c0.1-0.4,0.2-0.8,0.2-1.2c0-1.4-0.9-2.1-2.6-2.1H450c-1.1,0-1.6-0.5-1.6-1.6s0.5-1.6,1.6-1.6h7.2
			c1.4,0,2.6,0.5,3.6,1.5c1,1,1.5,2.2,1.5,3.6c0,0.5-0.1,0.9-0.2,1.3l-4,14.9C457.8,552.1,457.3,552.5,456.5,552.5z M457,542.8h-6.7
			c-1.3,0-2.4,0.4-3.2,1.2c-0.8,0.8-1.2,1.9-1.2,3.2c0,1.4,0.9,2.1,2.6,2.1h6.7L457,542.8z"/>
		<path class="st4" d="M470.1,531.2c0.2-0.8,0.7-1.2,1.6-1.2h8.8c1.5,0,2.7,0.5,3.6,1.5c1,1,1.5,2.2,1.5,3.7c0,0.5-0.1,0.9-0.2,1.3
			l-4,14.9c-0.2,0.8-0.7,1.2-1.5,1.2c-0.4,0-0.8-0.2-1.1-0.5c-0.3-0.3-0.5-0.7-0.5-1.1c0-0.1,0-0.3,0.1-0.5l3.8-14.1
			c0.1-0.4,0.2-0.8,0.2-1.2c0-1.4-0.9-2.1-2.6-2.1H473l-4.9,18.1c-0.2,0.8-0.7,1.2-1.5,1.2c-0.4,0-0.8-0.2-1.1-0.5
			c-0.3-0.3-0.5-0.7-0.5-1.1c0-0.1,0-0.3,0.1-0.5L470.1,531.2z"/>
		<path class="st4" d="M493.9,542.2l-2.4,9.1c-0.2,0.8-0.8,1.2-1.6,1.2c-1.1,0-1.6-0.5-1.6-1.6c0-0.1,0-0.3,0.1-0.4l7.8-29
			c0.2-0.8,0.7-1.2,1.6-1.2c0.6,0,1,0.2,1.3,0.6c0.3,0.4,0.4,0.9,0.2,1.5l-4.1,15.4l12.5-7.6c0.3-0.2,0.5-0.2,0.8-0.2
			c1.1,0,1.6,0.5,1.6,1.6c0,0.6-0.3,1.1-0.8,1.4l-8.1,4.9l3.6,12.6c0,0.2,0.1,0.3,0.1,0.4c0,1.1-0.5,1.7-1.6,1.7
			c-0.8,0-1.3-0.4-1.6-1.2l-3.4-11.8L493.9,542.2z"/>
	</g>
</g>
</svg>
